<svg width="62" height="62" viewBox="0 0 62 62" fill="none" xmlns="http://www.w3.org/2000/svg">
<g clip-path="url(#clip0_61_28)">
<rect width="62" height="62" rx="10" fill="#FACF7C"/>
<path d="M-19.6996 24.7226H14.6996C17.4611 24.7226 19.6996 26.9612 19.6996 29.7226V75.0317" stroke="#FFD481" stroke-width="20" stroke-linecap="round" stroke-linejoin="round"/>
<path d="M88.5027 13.4451H40.4972C37.7358 13.4451 35.4972 11.2065 35.4972 8.44509V-18.5086" stroke="#FFD481" stroke-width="20" stroke-linecap="round" stroke-linejoin="round"/>
<path d="M25.392 26.172L22.83 36H19.932L18.364 29.532L16.74 36H13.842L11.35 26.172H13.912L15.326 33.326L17.076 26.172H19.708L21.388 33.326L22.816 26.172H25.392ZM26.1166 32.08C26.1166 31.2773 26.2659 30.5727 26.5646 29.966C26.8726 29.3593 27.2879 28.8927 27.8106 28.566C28.3333 28.2393 28.9166 28.076 29.5606 28.076C30.1113 28.076 30.5919 28.188 31.0026 28.412C31.4226 28.636 31.7446 28.93 31.9686 29.294V28.188H34.3626V36H31.9686V34.894C31.7353 35.258 31.4086 35.552 30.9886 35.776C30.5779 36 30.0973 36.112 29.5466 36.112C28.9119 36.112 28.3333 35.9487 27.8106 35.622C27.2879 35.286 26.8726 34.8147 26.5646 34.208C26.2659 33.592 26.1166 32.8827 26.1166 32.08ZM31.9686 32.094C31.9686 31.4967 31.8006 31.0253 31.4646 30.68C31.1379 30.3347 30.7366 30.162 30.2606 30.162C29.7846 30.162 29.3786 30.3347 29.0426 30.68C28.7159 31.016 28.5526 31.4827 28.5526 32.08C28.5526 32.6773 28.7159 33.1533 29.0426 33.508C29.3786 33.8533 29.7846 34.026 30.2606 34.026C30.7366 34.026 31.1379 33.8533 31.4646 33.508C31.8006 33.1627 31.9686 32.6913 31.9686 32.094ZM38.4886 29.49C38.7686 29.0607 39.1186 28.7247 39.5386 28.482C39.9586 28.23 40.4252 28.104 40.9386 28.104V30.638H40.2806C39.6832 30.638 39.2352 30.7687 38.9366 31.03C38.6379 31.282 38.4886 31.73 38.4886 32.374V36H36.0946V28.188H38.4886V29.49ZM46.8428 28.104C47.7575 28.104 48.4855 28.4027 49.0268 29C49.5775 29.588 49.8528 30.4 49.8528 31.436V36H47.4728V31.758C47.4728 31.2353 47.3375 30.8293 47.0668 30.54C46.7962 30.2507 46.4322 30.106 45.9748 30.106C45.5175 30.106 45.1535 30.2507 44.8828 30.54C44.6122 30.8293 44.4768 31.2353 44.4768 31.758V36H42.0828V28.188H44.4768V29.224C44.7195 28.8787 45.0462 28.608 45.4568 28.412C45.8675 28.2067 46.3295 28.104 46.8428 28.104Z" fill="#F6FAFF"/>
</g>
<defs>
<clipPath id="clip0_61_28">
<rect width="62" height="62" rx="10" fill="white"/>
</clipPath>
</defs>
</svg>
