<svg width="62" height="62" viewBox="0 0 62 62" fill="none" xmlns="http://www.w3.org/2000/svg">
<g clip-path="url(#clip0_206_16)">
<rect width="62" height="62" rx="10" fill="#0F67FD"/>
<path d="M-19.6996 24.7226H14.6996C17.4611 24.7226 19.6996 26.9612 19.6996 29.7226V75.0317" stroke="#4C78FF" stroke-width="20" stroke-linecap="round" stroke-linejoin="round"/>
<path d="M88.5027 13.4451H40.4972C37.7358 13.4451 35.4972 11.2065 35.4972 8.44509V-18.5086" stroke="#4C78FF" stroke-width="20" stroke-linecap="round" stroke-linejoin="round"/>
<path d="M11.66 36H9.266L5.262 29.938V36H2.868V26.172H5.262L9.266 32.262V26.172H11.66V36ZM16.9513 36.112C16.186 36.112 15.4953 35.9487 14.8793 35.622C14.2727 35.2953 13.792 34.8287 13.4373 34.222C13.092 33.6153 12.9193 32.906 12.9193 32.094C12.9193 31.2913 13.0967 30.5867 13.4513 29.98C13.806 29.364 14.2913 28.8927 14.9073 28.566C15.5233 28.2393 16.214 28.076 16.9793 28.076C17.7447 28.076 18.4353 28.2393 19.0513 28.566C19.6673 28.8927 20.1527 29.364 20.5073 29.98C20.862 30.5867 21.0393 31.2913 21.0393 32.094C21.0393 32.8967 20.8573 33.606 20.4933 34.222C20.1387 34.8287 19.6487 35.2953 19.0233 35.622C18.4073 35.9487 17.7167 36.112 16.9513 36.112ZM16.9513 34.04C17.4087 34.04 17.796 33.872 18.1133 33.536C18.44 33.2 18.6033 32.7193 18.6033 32.094C18.6033 31.4687 18.4447 30.988 18.1273 30.652C17.8193 30.316 17.4367 30.148 16.9793 30.148C16.5127 30.148 16.1253 30.316 15.8173 30.652C15.5093 30.9787 15.3553 31.4593 15.3553 32.094C15.3553 32.7193 15.5047 33.2 15.8033 33.536C16.1113 33.872 16.494 34.04 16.9513 34.04ZM28.9582 26.172C29.9942 26.172 30.8995 26.3773 31.6742 26.788C32.4489 27.1987 33.0462 27.7773 33.4662 28.524C33.8955 29.2613 34.1102 30.1153 34.1102 31.086C34.1102 32.0473 33.8955 32.9013 33.4662 33.648C33.0462 34.3947 32.4442 34.9733 31.6602 35.384C30.8855 35.7947 29.9849 36 28.9582 36H25.2762V26.172H28.9582ZM28.8042 33.928C29.7095 33.928 30.4142 33.6807 30.9182 33.186C31.4222 32.6913 31.6742 31.9913 31.6742 31.086C31.6742 30.1807 31.4222 29.476 30.9182 28.972C30.4142 28.468 29.7095 28.216 28.8042 28.216H27.6702V33.928H28.8042ZM34.9721 32.08C34.9721 31.2773 35.1214 30.5727 35.4201 29.966C35.7281 29.3593 36.1434 28.8927 36.6661 28.566C37.1887 28.2393 37.7721 28.076 38.4161 28.076C38.9667 28.076 39.4474 28.188 39.8581 28.412C40.2781 28.636 40.6001 28.93 40.8241 29.294V28.188H43.2181V36H40.8241V34.894C40.5907 35.258 40.2641 35.552 39.8441 35.776C39.4334 36 38.9527 36.112 38.4021 36.112C37.7674 36.112 37.1887 35.9487 36.6661 35.622C36.1434 35.286 35.7281 34.8147 35.4201 34.208C35.1214 33.592 34.9721 32.8827 34.9721 32.08ZM40.8241 32.094C40.8241 31.4967 40.6561 31.0253 40.3201 30.68C39.9934 30.3347 39.5921 30.162 39.1161 30.162C38.6401 30.162 38.2341 30.3347 37.8981 30.68C37.5714 31.016 37.4081 31.4827 37.4081 32.08C37.4081 32.6773 37.5714 33.1533 37.8981 33.508C38.2341 33.8533 38.6401 34.026 39.1161 34.026C39.5921 34.026 39.9934 33.8533 40.3201 33.508C40.6561 33.1627 40.8241 32.6913 40.8241 32.094ZM49.304 33.97V36H48.086C47.218 36 46.5414 35.79 46.056 35.37C45.5707 34.9407 45.328 34.2453 45.328 33.284V30.176H44.376V28.188H45.328V26.284H47.722V28.188H49.29V30.176H47.722V33.312C47.722 33.5453 47.778 33.7133 47.89 33.816C48.002 33.9187 48.1887 33.97 48.45 33.97H49.304ZM50.1615 32.08C50.1615 31.2773 50.3109 30.5727 50.6095 29.966C50.9175 29.3593 51.3329 28.8927 51.8555 28.566C52.3782 28.2393 52.9615 28.076 53.6055 28.076C54.1562 28.076 54.6369 28.188 55.0475 28.412C55.4675 28.636 55.7895 28.93 56.0135 29.294V28.188H58.4075V36H56.0135V34.894C55.7802 35.258 55.4535 35.552 55.0335 35.776C54.6229 36 54.1422 36.112 53.5915 36.112C52.9569 36.112 52.3782 35.9487 51.8555 35.622C51.3329 35.286 50.9175 34.8147 50.6095 34.208C50.3109 33.592 50.1615 32.8827 50.1615 32.08ZM56.0135 32.094C56.0135 31.4967 55.8455 31.0253 55.5095 30.68C55.1829 30.3347 54.7815 30.162 54.3055 30.162C53.8295 30.162 53.4235 30.3347 53.0875 30.68C52.7609 31.016 52.5975 31.4827 52.5975 32.08C52.5975 32.6773 52.7609 33.1533 53.0875 33.508C53.4235 33.8533 53.8295 34.026 54.3055 34.026C54.7815 34.026 55.1829 33.8533 55.5095 33.508C55.8455 33.1627 56.0135 32.6913 56.0135 32.094Z" fill="#F6FAFF"/>
</g>
<defs>
<clipPath id="clip0_206_16">
<rect width="62" height="62" rx="10" fill="white"/>
</clipPath>
</defs>
</svg>
