<svg width="63" height="62" viewBox="0 0 63 62" fill="none" xmlns="http://www.w3.org/2000/svg">
<g clip-path="url(#clip0_42_19)">
<rect x="0.502686" width="62" height="62" rx="10" fill="#D93F3F"/>
<path d="M-19.197 24.7226H15.2023C17.9638 24.7226 20.2023 26.9612 20.2023 29.7226V75.0317" stroke="#F16F6F" stroke-width="20" stroke-linecap="round" stroke-linejoin="round"/>
<path d="M89.0054 13.4451H40.9999C38.2385 13.4451 35.9999 11.2065 35.9999 8.44509V-18.5086" stroke="#F16F6F" stroke-width="20" stroke-linecap="round" stroke-linejoin="round"/>
<path d="M11.7687 26.172H14.1627V36H11.7687L7.76469 29.938V36H5.37069V26.172H7.76469L11.7687 32.262V26.172ZM23.542 32.094C23.542 34.572 21.75 36.112 19.454 36.112C17.158 36.112 15.422 34.572 15.422 32.094C15.422 29.616 17.2 28.076 19.482 28.076C21.778 28.076 23.542 29.616 23.542 32.094ZM17.858 32.094C17.858 33.41 18.586 34.04 19.454 34.04C20.308 34.04 21.106 33.41 21.106 32.094C21.106 30.764 20.322 30.148 19.482 30.148C18.614 30.148 17.858 30.764 17.858 32.094ZM27.2061 32.374V36H24.8121V28.188H27.2061V29.49C27.7521 28.664 28.6061 28.104 29.6561 28.104V30.638H28.9981C27.8641 30.638 27.2061 31.03 27.2061 32.374ZM41.5664 36V31.758C41.5664 30.736 40.9784 30.176 40.0684 30.176C39.1584 30.176 38.5704 30.736 38.5704 31.758V36H36.1904V31.758C36.1904 30.736 35.6024 30.176 34.6924 30.176C33.7824 30.176 33.1944 30.736 33.1944 31.758V36H30.8004V28.188H33.1944V29.168C33.6564 28.538 34.4544 28.104 35.4764 28.104C36.6524 28.104 37.6044 28.622 38.1364 29.56C38.6544 28.734 39.6344 28.104 40.7684 28.104C42.7004 28.104 43.9464 29.336 43.9464 31.436V36H41.5664ZM45.1447 32.08C45.1447 29.616 46.6707 28.076 48.5887 28.076C49.7507 28.076 50.5767 28.608 50.9967 29.294V28.188H53.3907V36H50.9967V34.894C50.5627 35.58 49.7367 36.112 48.5747 36.112C46.6707 36.112 45.1447 34.544 45.1447 32.08ZM50.9967 32.094C50.9967 30.848 50.1987 30.162 49.2887 30.162C48.3927 30.162 47.5807 30.834 47.5807 32.08C47.5807 33.326 48.3927 34.026 49.2887 34.026C50.1987 34.026 50.9967 33.34 50.9967 32.094ZM55.1226 36V25.64H57.5166V36H55.1226Z" fill="#F6FAFF"/>
</g>
<defs>
<clipPath id="clip0_42_19">
<rect x="0.502686" width="62" height="62" rx="10" fill="white"/>
</clipPath>
</defs>
</svg>
