<svg width="62" height="62" viewBox="0 0 62 62" fill="none" xmlns="http://www.w3.org/2000/svg">
<g clip-path="url(#clip0_61_28)">
<rect width="62" height="62" rx="10" fill="#FACF7C"/>
<path d="M-19.6996 24.7226H14.6996C17.4611 24.7226 19.6996 26.9612 19.6996 29.7226V75.0317" stroke="#FFD481" stroke-width="20" stroke-linecap="round" stroke-linejoin="round"/>
<path d="M88.5027 13.4451H40.4972C37.7358 13.4451 35.4972 11.2065 35.4972 8.44509V-18.5086" stroke="#FFD481" stroke-width="20" stroke-linecap="round" stroke-linejoin="round"/>
<path d="M11.266 26.172H13.66V36H11.266L7.262 29.938V36H4.868V26.172H7.262L11.266 32.262V26.172ZM23.0393 32.094C23.0393 34.572 21.2473 36.112 18.9513 36.112C16.6553 36.112 14.9193 34.572 14.9193 32.094C14.9193 29.616 16.6973 28.076 18.9793 28.076C21.2753 28.076 23.0393 29.616 23.0393 32.094ZM17.3553 32.094C17.3553 33.41 18.0833 34.04 18.9513 34.04C19.8053 34.04 20.6033 33.41 20.6033 32.094C20.6033 30.764 19.8193 30.148 18.9793 30.148C18.1113 30.148 17.3553 30.764 17.3553 32.094ZM26.7034 32.374V36H24.3094V28.188H26.7034V29.49C27.2494 28.664 28.1034 28.104 29.1534 28.104V30.638H28.4954C27.3614 30.638 26.7034 31.03 26.7034 32.374ZM41.0637 36V31.758C41.0637 30.736 40.4757 30.176 39.5657 30.176C38.6557 30.176 38.0677 30.736 38.0677 31.758V36H35.6877V31.758C35.6877 30.736 35.0997 30.176 34.1897 30.176C33.2797 30.176 32.6917 30.736 32.6917 31.758V36H30.2977V28.188H32.6917V29.168C33.1537 28.538 33.9517 28.104 34.9737 28.104C36.1497 28.104 37.1017 28.622 37.6337 29.56C38.1517 28.734 39.1317 28.104 40.2657 28.104C42.1977 28.104 43.4437 29.336 43.4437 31.436V36H41.0637ZM44.642 32.08C44.642 29.616 46.168 28.076 48.086 28.076C49.248 28.076 50.074 28.608 50.494 29.294V28.188H52.888V36H50.494V34.894C50.06 35.58 49.234 36.112 48.072 36.112C46.168 36.112 44.642 34.544 44.642 32.08ZM50.494 32.094C50.494 30.848 49.696 30.162 48.786 30.162C47.89 30.162 47.078 30.834 47.078 32.08C47.078 33.326 47.89 34.026 48.786 34.026C49.696 34.026 50.494 33.34 50.494 32.094ZM54.62 36V25.64H57.014V36H54.62Z" fill="#F6FAFF"/>
</g>
<defs>
<clipPath id="clip0_61_28">
<rect width="62" height="62" rx="10" fill="white"/>
</clipPath>
</defs>
</svg>
