<svg width="63" height="62" viewBox="0 0 63 62" fill="none" xmlns="http://www.w3.org/2000/svg">
<g clip-path="url(#clip0_42_19)">
<rect x="0.502686" width="62" height="62" rx="10" fill="#D93F3F"/>
<path d="M-19.197 24.7226H15.2023C17.9638 24.7226 20.2023 26.9612 20.2023 29.7226V75.0317" stroke="#F16F6F" stroke-width="20" stroke-linecap="round" stroke-linejoin="round"/>
<path d="M89.0054 13.4451H40.9999C38.2385 13.4451 35.9999 11.2065 35.9999 8.44509V-18.5086" stroke="#F16F6F" stroke-width="20" stroke-linecap="round" stroke-linejoin="round"/>
<path d="M11.0107 33.074C11.0107 34.726 9.72269 36.098 7.42669 36.098C5.31269 36.098 3.66069 35.048 3.59069 33.06H6.13869C6.20869 33.816 6.68469 34.18 7.35669 34.18C8.05669 34.18 8.50469 33.83 8.50469 33.256C8.50469 31.436 3.59069 32.416 3.61869 28.93C3.61869 27.068 5.14469 26.032 7.20269 26.032C9.34469 26.032 10.7867 27.096 10.8847 28.972H8.29469C8.25269 28.342 7.80469 27.964 7.16069 27.95C6.58669 27.936 6.15269 28.23 6.15269 28.846C6.15269 30.554 11.0107 29.784 11.0107 33.074ZM12.862 33.284V30.176H11.91V28.188H12.862V26.284H15.256V28.188H16.824V30.176H15.256V33.312C15.256 33.774 15.452 33.97 15.984 33.97H16.838V36H15.62C13.996 36 12.862 35.314 12.862 33.284ZM25.8855 28.188V36H23.4915V34.936C23.0155 35.608 22.1755 36.084 21.1255 36.084C19.3195 36.084 18.1015 34.838 18.1015 32.752V28.188H20.4815V32.43C20.4815 33.494 21.0835 34.082 21.9795 34.082C22.9035 34.082 23.4915 33.494 23.4915 32.43V28.188H25.8855ZM32.9951 36V31.758C32.9951 30.694 32.4071 30.106 31.4971 30.106C30.5871 30.106 29.9991 30.694 29.9991 31.758V36H27.6051V28.188H29.9991V29.224C30.4751 28.566 31.3151 28.104 32.3651 28.104C34.1711 28.104 35.3751 29.336 35.3751 31.436V36H32.9951ZM37.4167 33.284V30.176H36.4647V28.188H37.4167V26.284H39.8107V28.188H41.3787V30.176H39.8107V33.312C39.8107 33.774 40.0067 33.97 40.5387 33.97H41.3927V36H40.1747C38.5507 36 37.4167 35.314 37.4167 33.284ZM46.1702 29.994C45.3862 29.994 44.7842 30.47 44.6442 31.338H47.6402C47.6402 30.484 46.9682 29.994 46.1702 29.994ZM49.9082 33.41C49.5302 34.936 48.1442 36.112 46.1982 36.112C43.9022 36.112 42.2502 34.572 42.2502 32.094C42.2502 29.616 43.8742 28.076 46.1982 28.076C48.4802 28.076 50.0902 29.588 50.0902 31.968C50.0902 32.192 50.0762 32.43 50.0482 32.668H44.6302C44.7142 33.69 45.3442 34.166 46.1142 34.166C46.7862 34.166 47.1642 33.83 47.3602 33.41H49.9082ZM50.8771 32.08C50.8771 29.616 52.4031 28.076 54.3211 28.076C55.3571 28.076 56.2531 28.552 56.7291 29.266V25.64H59.1231V36H56.7291V34.88C56.2951 35.594 55.4691 36.112 54.3211 36.112C52.4031 36.112 50.8771 34.544 50.8771 32.08ZM56.7291 32.094C56.7291 30.848 55.9311 30.162 55.0211 30.162C54.1251 30.162 53.3131 30.834 53.3131 32.08C53.3131 33.326 54.1251 34.026 55.0211 34.026C55.9311 34.026 56.7291 33.34 56.7291 32.094Z" fill="#F6FAFF"/>
</g>
<defs>
<clipPath id="clip0_42_19">
<rect x="0.502686" width="62" height="62" rx="10" fill="white"/>
</clipPath>
</defs>
</svg>
