<svg width="15" height="15" viewBox="0 0 15 15" fill="none" xmlns="http://www.w3.org/2000/svg">
<path d="M7.781 13.9291C8.96769 13.9291 10.1277 13.5772 11.1144 12.918C12.1011 12.2587 12.8702 11.3216 13.3243 10.2252C13.7784 9.12888 13.8972 7.92248 13.6657 6.7586C13.4342 5.59471 12.8628 4.52561 12.0236 3.6865C11.1845 2.84738 10.1154 2.27594 8.95155 2.04443C7.78766 1.81292 6.58126 1.93174 5.4849 2.38586C4.38855 2.83999 3.45148 3.60902 2.79219 4.59572C2.1329 5.58241 1.78101 6.74245 1.78101 7.92914C1.78101 8.92114 2.02101 9.85647 2.44767 10.6805L1.78101 13.9291L5.02967 13.2625C5.85367 13.6891 6.78967 13.9291 7.781 13.9291Z" stroke="#0F67FD" stroke-width="2" stroke-linecap="round" stroke-linejoin="round"/>
</svg>
