<svg width="21" height="15" viewBox="0 0 21 15" fill="none" xmlns="http://www.w3.org/2000/svg">
<path d="M20.6967 7.5233C20.6659 7.4558 19.9359 5.83497 18.3234 4.22247C16.1659 2.0683 13.4467 0.929138 10.4467 0.929138C7.4467 0.929138 4.72753 2.0683 2.57253 4.22247C0.960031 5.83497 0.230031 7.4558 0.196698 7.5233C0.140242 7.6513 0.111084 7.78966 0.111084 7.92956C0.111084 8.06945 0.140242 8.20781 0.196698 8.33581C0.227531 8.40414 0.957531 10.0241 2.57086 11.6366C4.72753 13.7908 7.4467 14.9291 10.4467 14.9291C13.4467 14.9291 16.1659 13.7908 18.32 11.6366C19.9334 10.0241 20.6634 8.40414 20.6942 8.33581C20.751 8.20798 20.7806 8.06971 20.7811 7.92982C20.7815 7.78992 20.7528 7.65148 20.6967 7.5233ZM16.8584 10.2733C15.0692 12.035 12.9125 12.9291 10.4467 12.9291C7.98086 12.9291 5.8242 12.035 4.03753 10.2725C3.33449 9.57683 2.72973 8.78843 2.24003 7.92914C2.72987 7.07019 3.33462 6.28209 4.03753 5.58664C5.82503 3.8233 7.98086 2.92914 10.4467 2.92914C12.9125 2.92914 15.0684 3.8233 16.8559 5.58664C17.5588 6.28203 18.1636 7.07014 18.6534 7.92914C18.1636 8.78838 17.5588 9.57677 16.8559 10.2725L16.8584 10.2733ZM10.4467 4.26247C9.7215 4.26247 9.01259 4.47752 8.40961 4.88042C7.80663 5.28331 7.33666 5.85597 7.05914 6.52597C6.78162 7.19596 6.70901 7.93321 6.85049 8.64447C6.99196 9.35573 7.34118 10.0091 7.85397 10.5219C8.36677 11.0347 9.0201 11.3839 9.73137 11.5254C10.4426 11.6668 11.1799 11.5942 11.8499 11.3167C12.5199 11.0392 13.0925 10.5692 13.4954 9.96623C13.8983 9.36325 14.1134 8.65434 14.1134 7.92914C14.1123 6.95702 13.7256 6.02503 13.0382 5.33763C12.3508 4.65024 11.4188 4.26357 10.4467 4.26247ZM10.4467 9.59581C10.1171 9.59581 9.79483 9.49806 9.52075 9.31492C9.24667 9.13179 9.03304 8.87149 8.9069 8.56694C8.78075 8.2624 8.74775 7.92729 8.81206 7.60399C8.87636 7.28069 9.0351 6.98371 9.26819 6.75063C9.50127 6.51754 9.79825 6.3588 10.1215 6.2945C10.4448 6.23019 10.78 6.26319 11.0845 6.38934C11.389 6.51548 11.6493 6.72911 11.8325 7.00319C12.0156 7.27727 12.1134 7.5995 12.1134 7.92914C12.1134 8.37117 11.9378 8.79509 11.6252 9.10765C11.3126 9.42021 10.8887 9.59581 10.4467 9.59581Z" fill="#353535"/>
</svg>
