<svg width="17" height="17" viewBox="0 0 17 17" fill="none" xmlns="http://www.w3.org/2000/svg">
<path d="M16.5 2.52427C16.5 3.16079 16.2471 3.77124 15.797 4.22132C15.3469 4.67141 14.7365 4.92427 14.1 4.92427C13.4634 4.92427 12.853 4.67141 12.4029 4.22132C11.9528 3.77124 11.7 3.16079 11.7 2.52427C11.7 1.88775 11.9528 1.2773 12.4029 0.827211C12.853 0.377124 13.4634 0.124268 14.1 0.124268C14.7365 0.124268 15.3469 0.377124 15.797 0.827211C16.2471 1.2773 16.5 1.88775 16.5 2.52427Z" fill="#0F67FD"/>
<path fill-rule="evenodd" clip-rule="evenodd" d="M11.3896 0.154668C10.572 0.124268 9.6192 0.124268 8.5 0.124268C4.7288 0.124268 2.8432 0.124268 1.6712 1.29547C0.5 2.46827 0.5 4.35307 0.5 8.12427C0.5 11.8955 0.5 13.7811 1.6712 14.9523C2.844 16.1243 4.7288 16.1243 8.5 16.1243C12.2712 16.1243 14.1568 16.1243 15.328 14.9523C16.5 13.7819 16.5 11.8955 16.5 8.12427C16.5 7.00507 16.5 6.05227 16.4696 5.23467C15.7823 5.83644 14.8919 6.15443 13.9789 6.12417C13.0659 6.09391 12.1985 5.71769 11.5525 5.07173C10.9066 4.42577 10.5304 3.5584 10.5001 2.64537C10.4698 1.73235 10.7878 0.841973 11.3896 0.154668ZM12.884 6.06347C13.0062 6.16534 13.0829 6.31155 13.0973 6.46997C13.1117 6.62839 13.0626 6.78604 12.9608 6.90827L11.4976 8.66427C11.2352 8.97947 10.9984 9.26427 10.7776 9.46427C10.536 9.68027 10.2336 9.87467 9.8336 9.87467C9.4336 9.87467 9.1304 9.68107 8.8896 9.46347C8.6688 9.26347 8.432 8.97947 8.1688 8.66347L7.9352 8.38347C7.6384 8.02747 7.456 7.81067 7.3056 7.67547C7.26666 7.63728 7.22281 7.60446 7.1752 7.57787L7.1672 7.57387L7.1632 7.57547L7.1576 7.57787C7.10997 7.60444 7.06612 7.63726 7.0272 7.67547C6.8776 7.81147 6.6952 8.02747 6.3984 8.38347L4.9608 10.1083C4.85767 10.2262 4.71252 10.299 4.55637 10.3114C4.40021 10.3237 4.24544 10.2744 4.12511 10.1741C4.00478 10.0739 3.92843 9.9305 3.91238 9.77469C3.89633 9.61888 3.94184 9.46297 4.0392 9.34027L5.5024 7.58427C5.7648 7.26907 6.0016 6.98427 6.2224 6.78427C6.464 6.56827 6.7664 6.37387 7.1664 6.37387C7.5664 6.37387 7.8696 6.56747 8.1104 6.78507C8.3312 6.98507 8.568 7.26907 8.8312 7.58507L9.0648 7.86507C9.3616 8.22107 9.544 8.43787 9.6944 8.57307C9.7632 8.63547 9.8048 8.66107 9.8248 8.67067L9.8272 8.67147C9.8293 8.6726 9.83144 8.67366 9.8336 8.67467L9.8416 8.67067C9.88951 8.64416 9.93364 8.61133 9.9728 8.57307C10.1224 8.43707 10.3048 8.22107 10.6016 7.86507L12.0392 6.14027C12.1411 6.0181 12.2873 5.94138 12.4457 5.92698C12.6041 5.91257 12.7618 5.96167 12.884 6.06347Z" fill="#0F67FD"/>
</svg>
